<?xml version="1.0" standalone="no"?>
<!DOCTYPE svg PUBLIC "-//W3C//DTD SVG 20010904//EN"
 "http://www.w3.org/TR/2001/REC-SVG-20010904/DTD/svg10.dtd">
<svg version="1.0" xmlns="http://www.w3.org/2000/svg"
 width="444.000000pt" height="444.000000pt" viewBox="0 0 444.000000 444.000000"
 preserveAspectRatio="xMidYMid meet">

<g transform="translate(0.000000,444.000000) scale(0.100000,-0.100000)"
fill="#000000" stroke="none">
<path d="M0 2220 l0 -2220 333 0 333 0 34 57 c50 82 149 197 235 274 69 61
117 90 388 233 l67 36 2 -48 c2 -63 4 -54 -37 -167 -29 -80 -105 -355 -105
-379 0 -3 193 -6 428 -6 373 0 445 3 567 20 173 24 165 25 166 -2 0 -13 13 13
28 57 15 44 42 123 60 175 18 52 53 138 77 190 75 161 243 444 298 503 44 48
58 56 106 66 102 19 215 31 274 27 56 -4 62 -7 100 -49 29 -32 67 -58 131 -88
50 -24 101 -46 115 -50 52 -15 225 -91 235 -103 6 -7 26 -16 46 -20 40 -7 204
-89 313 -156 71 -43 190 -134 215 -163 7 -10 17 -17 22 -17 5 0 9 870 9 2025
l0 2025 -907 -1 c-646 -1 -893 -5 -855 -12 44 -8 58 -16 85 -51 17 -23 35 -42
39 -44 5 -2 8 -9 8 -16 0 -7 10 -21 22 -32 23 -19 23 -19 7 1 -9 11 -20 30
-24 43 -6 22 -5 23 47 17 88 -11 114 -21 205 -78 49 -30 147 -87 218 -127 238
-134 279 -169 313 -271 11 -30 35 -121 55 -204 20 -82 51 -206 68 -275 17 -69
33 -141 36 -160 l4 -35 -15 25 c-9 14 -15 31 -16 39 0 7 -27 69 -60 137 -33
68 -60 128 -60 134 0 5 -4 10 -9 10 -5 0 -12 8 -15 18 -10 31 -67 85 -188 175
-42 31 -83 57 -91 57 -7 0 -41 25 -74 55 -63 57 -79 66 -69 39 3 -8 2 -12 -4
-9 -6 3 -10 12 -10 18 0 14 -68 82 -75 75 -6 -6 128 -202 170 -250 17 -19 50
-58 75 -88 54 -67 97 -115 173 -194 34 -36 61 -75 67 -96 35 -133 90 -358 90
-371 0 -9 14 -57 30 -107 33 -102 37 -140 15 -148 -8 -4 -12 -10 -9 -15 3 -5
12 -2 21 6 8 9 18 13 21 10 7 -7 -29 -34 -45 -35 -7 0 -13 -4 -13 -9 0 -5 -9
-11 -20 -14 -25 -6 -40 18 -40 67 0 20 -5 36 -11 36 -8 0 -10 17 -6 53 4 34 3
43 -3 27 -8 -25 -8 -24 -9 5 -1 17 -7 39 -15 50 -7 11 -19 47 -26 80 -7 33
-17 67 -22 75 -8 13 -9 13 -5 -1 3 -9 13 -63 22 -120 9 -57 25 -141 36 -186
10 -45 19 -91 19 -102 0 -23 -15 -28 -23 -8 -4 9 -8 9 -15 -1 -14 -20 -19 0
-33 123 -10 87 -16 105 -28 103 -18 -4 -18 -14 -2 -113 16 -96 22 -153 15
-137 -8 17 -24 5 -17 -13 3 -8 1 -15 -4 -15 -5 0 -17 42 -25 93 -9 50 -20 103
-24 116 -5 19 -4 22 6 16 9 -5 11 -4 6 4 -4 6 -12 9 -17 6 -5 -4 -9 3 -9 14 0
12 -4 21 -10 21 -11 0 -3 -115 10 -139 8 -16 26 -169 24 -206 -1 -11 3 -23 9
-26 15 -10 -1 -28 -21 -24 -70 14 -69 13 -77 57 -4 24 -8 61 -7 83 0 29 -2 35
-8 20 -6 -15 -9 -8 -14 30 -13 96 -38 235 -42 235 -3 0 -4 -63 -2 -139 2 -77
5 -136 6 -130 5 14 24 11 20 -3 -3 -7 3 -41 13 -76 l17 -64 -46 7 c-111 17
-227 21 -246 8 -15 -9 -23 -10 -33 -1 -11 9 -13 8 -11 -2 2 -7 -3 -15 -10 -17
-14 -6 -4 28 12 39 8 6 8 8 0 8 -7 0 -8 15 -3 48 26 152 31 191 27 227 l-3 40
-12 -40 c-13 -49 -46 -257 -47 -304 -1 -29 -6 -35 -41 -49 -22 -9 -41 -19 -43
-24 -2 -4 -10 -8 -19 -8 -8 0 -42 -16 -74 -35 -33 -19 -63 -35 -67 -35 -4 0
-24 -11 -45 -25 -37 -26 -45 -24 -46 15 0 8 -5 68 -11 133 -6 66 -9 121 -6
124 3 3 39 2 81 -2 86 -8 84 -4 60 -115 -9 -46 -10 -70 -3 -84 15 -27 24 -6
32 74 11 99 16 118 35 123 10 2 22 22 30 47 10 33 15 40 23 29 7 -10 8 -9 3 7
-3 12 4 43 15 69 15 35 19 58 13 84 l-6 36 -9 -35 c-5 -19 -16 -49 -24 -67 -7
-17 -14 -35 -14 -41 0 -5 -9 -31 -21 -57 l-21 -47 -78 7 c-43 4 -126 8 -184 9
-58 2 -109 6 -112 9 -4 3 -2 41 4 84 38 263 59 591 43 653 -15 55 -25 -9 -27
-165 -2 -197 -14 -355 -26 -355 -5 0 -6 -4 -3 -10 3 -5 -4 -10 -16 -10 -19 0
-21 4 -15 38 10 55 19 467 12 497 -4 14 -11 25 -16 25 -6 0 -9 -72 -8 -192 1
-116 -4 -226 -12 -276 l-12 -83 -42 3 c-34 3 -41 6 -38 23 7 54 1 479 -7 545
-6 41 -11 101 -11 133 0 46 -3 57 -16 57 -12 0 -15 6 -10 25 4 14 2 25 -3 25
-5 0 -7 9 -4 20 3 11 9 18 13 15 5 -3 6 4 3 15 -3 11 -9 23 -14 26 -5 3 -7 17
-3 32 4 23 3 24 -6 10 -6 -10 -10 -26 -8 -35 2 -11 -2 -17 -10 -15 -11 2 -12
-5 -5 -30 4 -18 7 -80 7 -138 -1 -58 3 -108 8 -111 5 -4 2 -13 -7 -23 -9 -9
-20 -14 -25 -11 -5 3 -21 44 -36 93 -15 48 -31 94 -35 102 -5 8 -18 49 -30 90
-12 41 -33 96 -46 123 -20 41 -26 46 -42 37 -11 -5 -22 -23 -26 -39 -3 -16
-14 -36 -23 -43 -14 -11 -15 -11 -9 5 4 10 7 33 7 50 0 22 3 28 9 18 14 -22
19 7 7 46 -13 38 -23 42 -29 11 -4 -16 -5 -14 -4 6 3 41 22 43 37 4 8 -21 14
-27 17 -17 2 8 -6 38 -18 65 -18 41 -22 46 -28 29 -7 -17 -8 -17 -14 7 -4 14
-10 34 -14 44 -5 12 -3 15 6 9 7 -4 5 4 -4 19 -10 15 -20 25 -22 22 -3 -2 1
-44 7 -93 13 -88 24 -931 14 -965 -3 -10 -11 -18 -19 -18 -16 0 -29 76 -46
260 -14 152 -22 195 -34 168 -4 -10 2 -111 13 -225 22 -221 21 -233 -25 -233
-25 0 -29 6 -37 60 -7 47 -32 168 -45 216 -5 21 -12 50 -15 64 -2 14 -9 38
-15 54 -16 41 -35 20 -20 -22 11 -32 8 -220 -6 -344 -4 -35 -2 -59 5 -63 6 -4
10 4 10 18 0 27 35 77 54 77 7 0 17 -17 22 -37 l9 -38 55 2 55 2 -45 -21 c-25
-12 -39 -23 -33 -25 7 -3 23 3 35 11 12 9 31 16 40 16 10 0 46 13 80 29 34 17
66 27 71 24 5 -3 13 0 17 6 4 7 16 14 26 16 10 2 19 4 19 5 0 1 12 4 28 6 15
1 27 -1 27 -6 0 -11 -30 -21 -41 -14 -5 3 -9 1 -9 -4 0 -10 -6 -12 -98 -37
-29 -9 -79 -28 -110 -44 -31 -16 -77 -38 -102 -49 -25 -10 -73 -31 -106 -47
-58 -26 -65 -27 -125 -16 -34 6 -67 15 -71 19 -14 14 55 50 118 61 32 6 59 11
61 11 2 0 3 8 3 18 0 9 -4 13 -8 7 -11 -15 -59 -12 -76 5 -17 17 -37 170 -56
430 -6 85 -16 191 -22 235 -6 44 -13 97 -15 118 -3 20 -10 37 -15 37 -6 0 -8
-12 -4 -30 4 -21 2 -29 -5 -24 -8 4 -9 -1 -4 -16 5 -15 4 -20 -3 -16 -7 4 -12
-10 -14 -36 -2 -28 -6 -8 -12 60 -5 56 -10 101 -13 99 -6 -7 -42 -343 -49
-465 -4 -68 -3 -139 4 -180 6 -37 16 -101 22 -142 6 -41 17 -102 25 -135 8
-33 17 -82 20 -109 3 -27 10 -55 16 -63 6 -7 9 -31 7 -53 -2 -22 0 -41 4 -42
4 -2 10 -27 13 -56 2 -30 7 -58 11 -63 3 -5 -1 -9 -9 -9 -20 0 -51 126 -52
206 0 52 -2 59 -13 45 -12 -14 -13 -13 -9 6 3 13 -1 24 -9 27 -7 3 -11 14 -9
25 2 11 -1 35 -6 53 -5 18 -12 55 -15 83 -2 27 -9 54 -14 59 -6 6 -10 19 -10
30 0 22 -13 14 -16 -10 -1 -9 4 -46 13 -83 8 -36 18 -88 23 -116 10 -65 20
-105 30 -130 4 -11 13 -49 19 -85 7 -36 19 -75 26 -86 13 -21 12 -21 -62 -28
-41 -4 -77 -5 -79 -4 -6 7 -36 122 -44 168 -4 25 -8 41 -10 35 -1 -5 -6 6 -10
25 -4 19 -11 43 -15 53 -6 14 -3 16 11 11 18 -5 18 -5 2 6 -10 6 -18 18 -18
25 0 8 -4 15 -10 15 -5 0 -10 9 -10 21 0 13 4 18 13 13 6 -4 3 2 -8 13 -11 11
-29 38 -39 61 -22 48 -36 54 -36 15 0 -16 -5 -74 -12 -130 -14 -113 -13 -113
-95 -113 l-43 0 -1 98 c-2 132 -8 234 -14 240 -3 3 -5 -40 -5 -96 0 -55 -5
-113 -10 -128 -8 -20 -8 -29 0 -34 7 -4 11 -27 10 -51 -3 -63 -1 -69 13 -67 8
2 12 -10 12 -35 0 -20 3 -37 8 -37 4 0 7 -13 7 -29 0 -26 -4 -29 -58 -41 -31
-6 -67 -14 -78 -17 -24 -5 -22 -14 -44 177 -16 133 -34 143 -25 14 8 -115 -4
-171 -39 -176 -12 -2 -20 -9 -19 -15 2 -7 -4 -10 -12 -7 -17 7 -21 34 -4 34 5
0 7 5 4 10 -3 6 1 13 9 16 9 3 16 10 16 16 0 5 -4 6 -10 3 -5 -3 -10 1 -10 9
0 9 4 16 8 16 5 0 7 14 4 31 l-5 31 -18 -29 c-10 -15 -19 -42 -19 -59 0 -39
-16 -56 -40 -42 -15 10 -15 15 -4 47 7 20 13 45 14 57 0 11 4 24 10 30 5 5 12
23 14 39 2 17 13 54 25 84 22 54 23 81 1 42 -6 -12 -16 -18 -22 -15 -7 5 -8 2
-3 -5 7 -12 -3 -41 -46 -137 -11 -22 -19 -46 -19 -53 0 -9 -5 -8 -16 3 -8 9
-22 16 -30 16 -8 0 -14 5 -14 12 0 11 29 80 51 120 5 10 9 25 9 33 0 9 6 18
14 21 8 3 12 13 9 23 -3 10 3 33 12 51 28 54 10 43 -29 -17 -20 -32 -46 -83
-57 -114 -12 -33 -30 -62 -42 -68 -13 -7 -15 -9 -4 -7 19 6 23 -9 6 -20 -7 -4
-20 4 -31 17 -11 13 -16 17 -12 9 7 -13 6 -13 -12 0 -10 8 -21 15 -23 17 -3 2
38 74 48 83 4 3 15 21 25 40 10 19 28 43 40 53 12 10 15 16 9 12 -7 -3 -13 -3
-13 1 0 11 171 274 179 274 3 0 6 161 6 358 0 297 2 362 14 376 18 21 160 105
291 172 60 31 111 66 140 97 50 51 59 56 61 30 1 -10 7 1 14 24 12 38 112 184
136 199 5 3 9 9 9 15 0 5 -269 9 -700 9 l-700 0 0 -2220z m907 1844 c-3 -3
-12 -4 -19 -1 -8 3 -5 6 6 6 11 1 17 -2 13 -5z m1103 -271 c0 -5 -5 -15 -10
-23 -8 -12 -10 -11 -10 8 0 12 5 22 10 22 6 0 10 -3 10 -7z m20 -48 c0 -19 -4
-35 -10 -35 -11 0 -13 30 -4 54 10 25 14 19 14 -19z m-83 -92 c-3 -10 -5 -2
-5 17 0 19 2 27 5 18 2 -10 2 -26 0 -35z m1381 29 c6 -18 -15 -14 -22 4 -4 10
-1 14 6 12 6 -2 14 -10 16 -16z m-1317 -16 c-5 -6 -14 -27 -19 -46 -9 -34 -10
-33 -7 15 3 60 1 56 20 49 10 -4 12 -10 6 -18z m-550 -37 c-6 -24 -9 -28 -10
-12 -1 24 9 56 16 50 2 -3 0 -20 -6 -38z m579 15 c0 -8 -5 -12 -10 -9 -6 4 -8
11 -5 16 9 14 15 11 15 -7z m-561 -136 c-2 -77 -6 -69 -11 20 -2 28 0 52 5 52
4 0 6 -33 6 -72z m521 51 c0 -5 -4 -9 -10 -9 -5 0 -10 7 -10 16 0 8 5 12 10 9
6 -3 10 -10 10 -16z m-603 -26 c-3 -10 -5 -4 -5 12 0 17 2 24 5 18 2 -7 2 -21
0 -30z m565 -43 c4 0 8 -7 8 -17 0 -9 11 -36 26 -60 14 -24 22 -48 18 -55 -4
-7 -3 -8 4 -4 17 10 15 -13 -3 -30 -8 -9 -23 -13 -34 -9 -14 4 -19 1 -17 -12
0 -9 -7 -19 -16 -21 -17 -3 -18 8 -17 130 1 107 3 128 12 106 6 -16 14 -28 19
-28z m-545 -2 c-3 -8 -6 -5 -6 6 -1 11 2 17 5 13 3 -3 4 -12 1 -19z m30 -30
c-2 -13 -4 -5 -4 17 -1 22 1 32 4 23 2 -10 2 -28 0 -40z m623 13 c0 -6 -4 -13
-10 -16 -5 -3 -10 1 -10 9 0 9 5 16 10 16 6 0 10 -4 10 -9z m-43 -33 c-3 -8
-6 -5 -6 6 -1 11 2 17 5 13 3 -3 4 -12 1 -19z m203 12 c0 -5 -2 -10 -4 -10 -3
0 -8 5 -11 10 -3 6 -1 10 4 10 6 0 11 -4 11 -10z m-833 -42 c-3 -8 -6 -5 -6 6
-1 11 2 17 5 13 3 -3 4 -12 1 -19z m-10 -50 c-3 -7 -5 -2 -5 12 0 14 2 19 5
13 2 -7 2 -19 0 -25z m0 -60 c-3 -8 -6 -5 -6 6 -1 11 2 17 5 13 3 -3 4 -12 1
-19z m651 -18 c-7 -11 -25 -26 -40 -32 -15 -7 -24 -17 -21 -22 4 -5 -1 -7 -10
-3 -9 3 -16 3 -16 -1 3 -18 -2 -32 -10 -32 -24 0 9 52 49 79 54 35 64 38 48
11z m68 -77 c10 -21 17 -41 16 -45 -1 -5 3 -8 8 -8 6 0 10 -6 10 -14 0 -7 7
-19 15 -26 8 -7 21 -25 28 -40 l14 -28 -41 5 c-69 7 -128 25 -134 41 -11 31
35 150 59 152 4 0 15 -17 25 -37z m-76 12 c0 -9 -9 -15 -22 -15 -21 0 -21 0
-2 15 24 18 24 18 24 0z m-583 -57 c-3 -7 -5 -2 -5 12 0 14 2 19 5 13 2 -7 2
-19 0 -25z m-47 -27 c0 -32 -6 -24 -14 19 -4 25 -3 31 4 20 5 -8 10 -26 10
-39z m111 -88 c13 -144 8 -170 -34 -157 -12 4 -17 2 -13 -4 3 -5 -1 -15 -8
-21 -20 -17 -32 5 -14 26 7 10 8 14 1 10 -14 -9 -30 92 -15 102 5 3 13 22 17
41 4 19 12 43 18 55 24 47 27 56 27 72 0 9 2 14 4 12 2 -2 10 -63 17 -136z
m198 30 c1 -13 -3 -23 -8 -23 -4 0 -8 28 -9 63 0 58 0 59 8 22 5 -22 9 -50 9
-62z m306 80 c-4 -10 -9 -27 -11 -38 -5 -24 -31 -45 -55 -45 -12 0 -17 6 -14
20 6 32 16 42 36 37 11 -3 17 -1 14 4 -7 10 15 38 29 39 4 0 5 -8 1 -17z
m1685 -4 c8 -12 50 -65 93 -118 161 -197 158 -193 147 -207 -7 -7 -17 -12 -23
-10 -7 1 -9 1 -4 -1 4 -3 5 -8 3 -12 -3 -4 -1 -13 5 -21 6 -12 9 -12 9 -2 0 7
7 20 14 28 12 11 17 12 25 2 46 -56 63 -79 60 -82 -15 -13 -49 -25 -49 -18 0
6 10 12 22 15 19 5 20 8 8 23 -13 15 -15 14 -31 -5 -16 -19 -18 -20 -30 -3 -7
9 -9 14 -5 10 14 -12 34 11 29 32 -6 23 -23 27 -23 6 0 -23 -27 -26 -47 -4
-10 11 -31 29 -47 41 l-28 20 7 -24 c4 -13 15 -29 23 -35 8 -6 12 -16 8 -22
-4 -7 -2 -12 3 -12 6 0 11 -5 11 -12 0 -9 -3 -9 -12 0 -7 7 -18 12 -26 12 -12
0 -12 -3 -2 -15 7 -8 25 -14 44 -12 25 2 32 -2 34 -19 2 -15 13 -24 35 -28 28
-6 30 -8 15 -22 -9 -9 -31 -18 -50 -20 -30 -3 -31 -2 -15 10 12 9 14 16 8 21
-6 3 -11 2 -11 -4 0 -6 -7 -8 -16 -4 -8 3 -13 11 -11 18 6 14 -30 38 -43 30
-18 -11 -11 -41 16 -70 14 -15 22 -30 18 -34 -4 -3 -9 0 -11 7 -3 9 -10 4 -19
-13 -8 -15 -11 -31 -8 -36 3 -5 0 -9 -6 -9 -7 0 -17 13 -23 29 -7 20 -23 34
-51 46 l-41 16 24 18 c13 10 32 16 42 14 13 -4 19 0 19 10 0 8 -3 17 -7 19
-15 6 -60 103 -72 151 -13 52 -41 256 -41 294 0 29 11 29 30 2z m-1700 -117
c-19 -8 -38 -15 -42 -14 -5 1 -8 -2 -8 -8 0 -5 -4 -10 -10 -10 -19 0 2 29 28
39 46 16 71 11 32 -7z m212 -29 c-8 -3 -5 -10 10 -23 20 -16 23 -28 23 -88 0
-81 11 -98 59 -97 20 1 36 -3 36 -9 0 -6 4 -5 9 3 5 8 11 9 15 3 3 -5 17 -7
31 -4 19 3 25 0 25 -12 0 -10 -4 -14 -10 -11 -7 4 -7 -3 0 -20 5 -14 7 -53 3
-86 -8 -75 -3 -79 99 -79 l76 0 6 -107 c13 -220 18 -235 72 -211 16 7 31 15
34 19 8 10 191 102 194 98 2 -2 13 -23 26 -45 29 -54 19 -99 -23 -99 -35 -1
-43 -11 -67 -74 l-19 -53 37 4 c20 3 75 -3 122 -12 47 -10 92 -15 100 -12 28
11 102 87 121 125 l20 38 -21 -13 c-11 -7 -20 -16 -20 -20 0 -18 -66 -96 -77
-93 -7 3 -13 0 -13 -5 0 -6 -13 -10 -30 -10 -16 0 -30 5 -30 10 0 6 5 10 11
10 5 0 8 4 4 10 -7 12 30 50 50 50 22 0 18 -17 -5 -23 -11 -3 -20 -11 -20 -19
0 -11 2 -10 9 1 5 7 13 11 17 9 5 -3 18 3 28 13 18 18 18 19 2 19 -12 0 -16 5
-12 15 3 8 1 15 -3 15 -5 0 -11 -6 -14 -12 -7 -22 -27 142 -21 168 4 14 2 24
-5 24 -6 0 -11 -5 -11 -11 0 -7 -7 -8 -17 -4 -10 4 -26 8 -36 10 -35 7 -40 18
-16 31 13 7 32 13 42 14 10 0 15 4 12 10 -3 6 1 7 10 4 9 -4 14 -9 11 -11 -5
-5 12 -27 65 -86 28 -31 40 -38 57 -33 29 9 31 51 3 43 -24 -6 -64 33 -56 55
4 9 2 19 -4 23 -7 4 -8 -1 -4 -12 6 -17 5 -17 -12 -1 -11 10 -16 20 -13 24 4
3 51 1 105 -5 72 -8 101 -15 110 -28 17 -23 16 -36 -2 -29 -8 3 -15 1 -15 -4
0 -6 7 -10 15 -10 21 0 21 -156 0 -196 -8 -16 -15 -36 -15 -44 -1 -38 -217
-234 -339 -307 -54 -33 -57 -33 -161 -31 l-105 3 -52 -51 c-51 -50 -65 -74
-43 -74 6 0 10 4 10 9 0 5 9 11 20 14 22 6 28 -21 10 -39 -6 -6 -18 -26 -28
-45 -10 -19 -35 -64 -56 -101 -29 -52 -34 -68 -22 -68 8 0 21 10 27 23 7 12
18 27 26 32 8 6 15 20 15 32 1 13 7 19 15 16 8 -3 13 -2 12 3 -4 22 2 45 10
40 5 -4 7 3 4 14 -4 13 0 20 9 20 8 0 19 16 25 35 9 29 9 35 -3 35 -30 0 -11
19 44 43 31 13 58 23 60 22 2 -2 -1 -69 -7 -150 -6 -82 -8 -152 -5 -156 3 -5
27 -9 54 -9 30 0 54 -6 64 -15 13 -13 15 -13 20 3 2 9 4 4 3 -13 -2 -27 -6
-31 -42 -37 -48 -7 -145 -34 -153 -42 -13 -14 8 -14 88 0 47 8 126 16 176 18
l92 3 6 -36 c10 -59 7 -68 -21 -80 -32 -12 -137 -39 -205 -51 -26 -5 -55 -13
-65 -18 -10 -5 -52 -17 -93 -25 -41 -9 -106 -23 -145 -32 -38 -8 -97 -18 -130
-21 -33 -3 -77 -10 -97 -15 -21 -5 -95 -21 -165 -35 -176 -34 -200 -41 -218
-67 -19 -26 -20 -141 -3 -234 10 -54 9 -66 -3 -74 -8 -5 -19 -9 -25 -9 -10 0
-51 225 -56 307 -2 25 -7 33 -21 33 -13 0 -17 -5 -13 -17 7 -26 15 -88 22
-168 3 -38 9 -89 14 -113 6 -33 4 -45 -6 -49 -31 -12 -44 6 -46 59 -1 29 -3
73 -4 98 -1 25 -9 91 -19 148 -9 56 -15 108 -12 115 4 11 96 39 172 53 15 3
35 9 44 13 9 5 39 12 66 16 28 4 55 11 60 15 9 8 125 33 225 50 25 4 58 12 73
19 16 6 41 11 56 11 16 0 39 9 53 19 13 11 41 23 62 26 22 5 34 11 28 17 -5 5
-20 5 -37 -2 -35 -13 -41 -7 -22 20 11 16 16 18 21 8 3 -7 3 -3 0 10 -3 12 -1
22 4 22 5 0 12 9 15 20 3 11 11 19 19 18 8 -2 12 5 10 20 -2 13 3 25 12 28 8
3 13 11 10 19 -3 7 2 15 11 19 13 5 14 8 3 20 -11 12 -16 10 -35 -12 -12 -15
-22 -31 -23 -35 0 -15 -37 -57 -44 -50 -3 3 -6 -2 -6 -11 0 -10 -12 -40 -27
-66 -26 -47 -28 -48 -102 -65 -42 -9 -91 -21 -109 -27 -18 -5 -56 -14 -85 -18
-29 -5 -104 -22 -167 -39 -63 -16 -116 -28 -118 -26 -5 5 24 35 32 35 7 0 105
69 124 87 7 7 18 13 23 13 5 0 8 4 7 8 -4 14 51 54 122 90 70 36 149 97 138
107 -3 4 -49 -19 -101 -49 -180 -106 -426 -222 -522 -246 -113 -28 -194 -29
-239 -1 -32 20 -112 99 -189 187 -60 68 -184 261 -207 322 -38 100 -69 269
-86 471 -3 30 -9 73 -14 95 -5 22 -7 42 -4 45 2 2 4 -2 4 -10 0 -8 6 -3 14 11
7 14 9 30 5 35 -9 13 13 77 29 83 9 3 12 -16 12 -71 0 -60 4 -80 20 -98 10
-13 19 -19 20 -12 0 7 7 10 15 7 8 -4 26 1 40 10 34 23 38 20 31 -16 -4 -24
-3 -29 4 -18 5 8 10 49 10 90 l0 75 27 -38 c23 -32 43 -47 43 -32 0 2 -15 38
-34 78 -19 41 -45 102 -57 137 -12 35 -33 75 -45 89 -27 29 -29 56 -12 130
l11 51 13 -35 c11 -33 27 -107 25 -113 -1 -1 5 -15 13 -31 9 -16 18 -44 21
-62 11 -69 18 -94 27 -106 5 -7 7 -16 4 -21 -3 -5 2 -18 10 -30 18 -26 45 -27
123 -7 31 7 69 13 85 11 l29 -4 -7 63 c-5 49 -3 65 9 75 8 7 15 17 15 22 0 5
6 16 14 24 11 11 16 11 19 1 6 -14 39 22 63 69 24 49 112 134 131 127 12 -5
14 -3 8 8 -6 11 -5 12 6 2 7 -7 18 -13 23 -13 6 0 5 4 -2 9 -24 15 14 36 42
23 14 -6 28 -7 37 -1 21 13 93 11 189 -6 94 -17 106 -18 97 -9 -4 5 -230 43
-262 44 -12 1 25 30 38 30 4 0 5 -6 1 -12 -4 -7 4 -1 19 13 26 26 211 88 224
76 3 -4 15 0 27 8 11 8 25 15 31 14 5 0 4 -3 -3 -6z m-669 -220 c15 -3 27 -10
27 -16 0 -13 -43 -77 -51 -77 -4 0 -13 -20 -20 -45 -7 -25 -17 -45 -20 -45
-10 0 -23 106 -15 119 4 5 0 27 -7 49 l-14 39 36 -9 c20 -5 48 -12 64 -15z
m31 -78 c-9 -14 -18 -25 -21 -25 -5 0 5 18 20 38 17 22 18 13 1 -13z m2480 0
c-7 -17 -20 -20 -28 -6 -4 5 0 12 6 14 23 9 28 7 22 -8z m-4 -30 c5 3 17 2 25
-3 14 -7 14 -10 -2 -23 -16 -13 -21 -12 -48 15 -24 23 -25 27 -7 17 12 -7 27
-9 32 -6z m-298 -77 c5 -7 6 -25 4 -40 -3 -15 -1 -30 4 -33 6 -4 7 1 3 12 -6
16 -5 16 10 4 9 -7 17 -19 17 -25 0 -6 9 -18 20 -26 11 -8 20 -20 20 -27 0 -7
3 -13 8 -13 4 0 16 -16 26 -35 18 -33 18 -38 3 -68 -14 -29 -16 -30 -16 -9 -1
13 -5 21 -10 18 -5 -4 -7 4 -4 16 3 17 2 19 -5 10 -7 -11 -14 -8 -31 14 -12
15 -20 33 -17 40 3 8 0 11 -9 8 -10 -4 -12 0 -8 15 6 23 19 28 26 9 2 -7 8
-10 12 -6 4 4 -2 16 -13 28 l-20 21 -7 -28 c-7 -26 -8 -26 -15 -8 -12 28 -12
43 0 25 5 -8 10 -10 10 -5 0 6 -16 23 -35 38 -19 15 -35 36 -35 47 0 10 -5 22
-10 25 -12 8 -40 -12 -40 -28 0 -5 9 -2 20 8 22 20 26 14 8 -14 -9 -15 -8 -22
6 -36 11 -11 14 -25 10 -39 -11 -36 -10 -41 9 -38 9 2 17 -2 17 -8 0 -6 4 -8
10 -5 5 3 12 -6 16 -20 3 -14 10 -25 15 -25 4 0 13 -10 20 -21 9 -17 8 -20 -2
-14 -6 5 -10 4 -7 -1 3 -5 8 -18 12 -29 6 -16 9 -17 16 -5 7 12 10 11 16 -5 5
-11 16 -29 27 -40 10 -11 16 -28 13 -38 -3 -14 -2 -16 9 -7 19 16 30 -6 12
-24 -11 -11 -17 -12 -27 -3 -10 10 -12 8 -7 -6 8 -22 -60 -89 -83 -82 -8 2
-22 0 -30 -5 -12 -8 -11 -10 7 -10 29 0 53 -10 53 -22 0 -6 -7 -7 -16 -4 -8 3
-13 2 -10 -2 2 -4 -9 -15 -26 -25 -30 -17 -30 -17 -25 5 3 13 -1 32 -9 42 -8
11 -14 28 -14 39 0 10 -9 21 -20 24 -11 3 -20 13 -20 22 0 9 -7 26 -15 38 -8
12 -12 28 -9 37 8 20 -19 22 -34 3 -8 -10 -8 -19 2 -33 7 -10 18 -32 23 -49 6
-16 23 -56 37 -89 21 -45 23 -57 11 -53 -9 4 -15 1 -15 -8 0 -9 6 -12 18 -8
16 6 16 5 0 -12 -20 -22 -18 -24 -40 40 -12 34 -14 51 -6 56 6 4 7 12 4 18 -4
6 -11 9 -16 6 -9 -6 -17 11 -36 84 -12 44 -12 56 -2 64 10 6 9 8 -3 4 -16 -5
-39 28 -39 56 0 7 -9 13 -20 13 -11 0 -20 -1 -20 -3 0 -1 11 -27 25 -57 14
-30 25 -69 25 -85 0 -17 4 -31 9 -31 5 0 17 -30 27 -67 9 -38 24 -81 32 -97 7
-15 12 -37 9 -47 -3 -11 -1 -17 4 -13 9 5 14 -15 11 -49 -1 -10 3 -15 8 -12 6
4 10 -7 10 -25 0 -18 4 -29 10 -25 6 3 10 -5 10 -19 0 -15 -8 -30 -21 -36 -21
-12 -51 -7 -47 7 2 9 -15 51 -38 95 -8 14 -14 33 -14 42 0 9 -4 16 -10 16 -5
0 -15 19 -22 43 -20 68 -58 89 -58 31 0 -30 -17 -32 -23 -1 -3 15 -5 12 -6
-11 0 -20 3 -31 9 -27 6 3 10 -2 11 -12 0 -14 2 -14 9 5 11 27 24 29 17 3 -3
-14 -1 -18 10 -14 12 5 14 0 9 -28 -5 -25 -4 -30 3 -19 9 12 11 9 12 -15 0
-16 3 -24 6 -16 3 7 18 -18 33 -55 26 -64 27 -70 12 -82 -10 -8 -29 -11 -47
-8 -22 4 -26 3 -15 -4 13 -8 13 -10 -2 -10 -22 0 -25 6 -33 59 -3 24 -10 53
-15 65 -4 12 -15 60 -24 106 -24 117 -36 154 -48 142 -6 -6 -6 -29 1 -64 7
-30 14 -67 17 -83 3 -16 7 -32 10 -37 3 -4 8 -29 11 -55 3 -27 11 -70 18 -97
l13 -48 -33 -14 c-18 -7 -40 -20 -49 -29 -14 -14 -16 -12 -21 22 -4 21 -16 70
-27 108 -11 39 -26 96 -33 129 -15 67 -24 79 -45 66 -10 -7 -12 -12 -4 -17 11
-8 23 -46 30 -99 2 -17 9 -44 15 -60 12 -33 23 -104 23 -152 0 -18 3 -27 7
-20 4 7 10 -4 14 -28 4 -21 10 -52 15 -69 4 -16 11 -47 13 -67 5 -34 3 -39
-18 -44 -13 -3 -29 -3 -34 1 -6 3 -11 1 -11 -5 0 -6 -12 -10 -27 -8 -31 3 -35
15 -54 153 -19 138 -44 276 -51 288 -16 26 -19 -7 -9 -104 10 -96 28 -219 46
-311 l7 -38 -42 0 c-32 0 -41 3 -37 14 3 7 0 19 -6 25 -8 8 -8 11 1 11 7 0 12
5 12 11 0 5 -4 8 -9 5 -4 -3 -8 7 -9 22 0 15 -5 77 -11 137 -5 61 -10 120 -10
131 -1 22 -27 41 -28 21 0 -7 -3 -36 -6 -65 -3 -29 -2 -50 2 -47 5 2 11 -37
14 -88 4 -51 10 -102 13 -114 5 -19 2 -23 -17 -24 -24 -2 -24 -2 -1 -6 29 -6
31 -43 1 -43 -15 0 -19 5 -15 15 3 8 1 15 -4 15 -6 0 -10 -9 -10 -20 0 -11 -5
-20 -11 -20 -7 0 -9 10 -5 28 11 52 11 165 0 169 -16 5 -24 -31 -24 -118 0
-71 -2 -77 -22 -82 -12 -4 -24 -5 -25 -3 -10 9 -5 80 5 84 7 2 12 8 12 13 0 6
-5 7 -11 3 -8 -5 -10 20 -5 92 4 55 9 125 11 157 3 60 20 91 57 103 10 3 29
15 41 27 39 38 148 132 163 140 8 4 14 13 14 20 0 7 16 23 36 37 20 14 46 48
60 78 22 44 26 68 27 148 1 51 -1 94 -5 94 -5 0 -8 12 -7 28 0 24 1 25 9 7 5
-11 9 -15 9 -8 1 8 21 11 62 10 l62 -2 -1 56 c0 64 12 93 28 69 8 -13 10 -12
10 3 0 9 6 17 14 17 8 0 42 13 75 29 51 24 68 27 98 21 20 -5 40 -15 45 -22z
m208 23 c0 -5 -7 -12 -16 -15 -14 -5 -14 -8 0 -28 9 -12 16 -27 16 -33 0 -5
-11 7 -25 27 -29 43 -31 50 -10 42 8 -4 15 -1 15 5 0 6 5 11 10 11 6 0 10 -4
10 -9z m67 -7 c-3 -3 -12 -4 -19 -1 -8 3 -5 6 6 6 11 1 17 -2 13 -5z m-38 -25
c6 10 9 9 14 -2 3 -9 -4 -23 -16 -33 -12 -11 -19 -15 -14 -10 4 5 0 21 -10 35
-16 25 -16 25 1 12 14 -12 19 -12 25 -2z m-2934 -9 c3 -5 15 -10 26 -10 10 0
19 -4 19 -10 0 -5 -12 -10 -27 -10 -14 0 -23 3 -20 7 4 3 -1 12 -11 19 -9 8
-12 14 -5 14 6 0 15 -4 18 -10z m2860 -39 c13 -16 15 -21 5 -16 -11 6 -12 5
-4 -4 15 -16 5 -61 -13 -61 -15 0 -73 58 -73 73 0 13 18 7 24 -9 3 -8 14 -14
23 -12 20 4 19 16 -3 22 -25 7 -41 26 -22 26 9 0 18 -6 21 -12 3 -9 7 -7 12 5
4 10 8 17 9 15 1 -2 10 -14 21 -27z m-2878 -6 c-4 -8 -11 -15 -17 -15 -6 0 -6
7 2 20 14 22 24 19 15 -5z m2673 -56 c0 -6 -4 -7 -10 -4 -5 3 -10 11 -10 16 0
6 5 7 10 4 6 -3 10 -11 10 -16z m-2950 2 c0 -5 -6 -14 -14 -20 -11 -9 -15 -7
-19 9 -4 15 0 20 14 20 10 0 19 -4 19 -9z m230 -23 c0 -19 -2 -20 -10 -8 -13
19 -13 30 0 30 6 0 10 -10 10 -22z m-27 -75 c5 -38 10 -80 11 -95 0 -16 4 -28
9 -28 4 0 7 -4 7 -9 0 -6 -8 -9 -18 -8 -13 1 -19 10 -20 31 -2 25 0 28 9 16 8
-11 8 -6 3 20 -13 70 -30 68 -39 -4 -7 -53 -8 -54 -31 -44 -22 10 -23 16 -23
88 1 85 4 95 39 108 35 14 42 3 53 -75z m-120 42 c1 -5 1 -39 -1 -74 l-4 -63
-28 6 c-40 7 -69 34 -63 57 3 11 9 19 13 19 4 0 11 20 14 44 7 44 7 44 36 33
16 -6 31 -16 33 -22z m154 -47 c-3 -8 -6 -5 -6 6 -1 11 2 17 5 13 3 -3 4 -12
1 -19z m2027 -52 c20 -51 21 -116 2 -141 -12 -17 -16 -18 -32 -5 -17 14 -18
14 -5 -2 23 -30 -1 -46 -68 -44 -33 0 -63 4 -67 8 -15 15 15 58 40 58 35 0 56
10 56 26 0 8 5 14 10 14 25 0 3 94 -28 119 -16 13 -16 13 1 8 9 -4 17 -3 17 2
0 4 13 6 29 3 23 -3 32 -12 45 -46z m648 -191 c3 -13 1 -22 -3 -19 -9 5 -13
44 -5 44 2 0 6 -11 8 -25z m-742 -364 c-3 -51 -28 -283 -32 -286 -10 -10 -94
-15 -106 -7 -16 11 3 283 21 294 15 9 117 8 117 -1z m-1192 -718 c-3 -21 1
-78 8 -128 8 -49 13 -115 13 -145 -2 -53 -2 -52 -14 30 -7 47 -11 88 -9 92 2
3 -2 30 -10 60 -13 50 -15 53 -44 50 -21 -2 -31 2 -36 15 -4 10 -2 19 3 21 6
2 11 10 11 17 0 12 17 18 69 24 10 1 12 -9 9 -36z m-41 -77 c1 -1 3 -28 6 -61
2 -33 2 -48 0 -33 -2 15 -12 33 -22 40 -10 7 -20 25 -23 41 -5 24 -3 27 16 21
11 -4 22 -7 23 -8z m20 -203 c-3 -10 -5 -2 -5 17 0 19 2 27 5 18 2 -10 2 -26
0 -35z m52 -98 c0 -5 -4 -3 -9 5 -5 8 -9 22 -9 30 0 16 17 -16 18 -35z m-42
-2 c-3 -10 -5 -4 -5 12 0 17 2 24 5 18 2 -7 2 -21 0 -30z"/>
<path d="M1481 3074 c0 -11 3 -14 6 -6 3 7 2 16 -1 19 -3 4 -6 -2 -5 -13z"/>
<path d="M3800 2861 c0 -5 5 -13 10 -16 6 -3 10 -2 10 4 0 5 -4 13 -10 16 -5
3 -10 2 -10 -4z"/>
<path d="M3820 2776 c0 -2 9 -6 20 -9 11 -3 18 -1 14 4 -5 9 -34 13 -34 5z"/>
<path d="M3766 2757 c3 -10 9 -15 12 -12 3 3 0 11 -7 18 -10 9 -11 8 -5 -6z"/>
<path d="M3790 2720 c0 -5 5 -10 11 -10 5 0 7 5 4 10 -3 6 -8 10 -11 10 -2 0
-4 -4 -4 -10z"/>
<path d="M3743 2643 c9 -2 23 -2 30 0 6 3 -1 5 -18 5 -16 0 -22 -2 -12 -5z"/>
<path d="M3800 2601 c0 -5 5 -13 10 -16 6 -3 10 -2 10 4 0 5 -4 13 -10 16 -5
3 -10 2 -10 -4z"/>
<path d="M1795 2840 c3 -5 11 -10 16 -10 6 0 7 5 4 10 -3 6 -11 10 -16 10 -6
0 -7 -4 -4 -10z"/>
<path d="M2170 2826 c0 -8 4 -17 8 -20 13 -8 35 11 28 23 -10 16 -36 14 -36
-3z"/>
<path d="M1751 2805 c-40 -18 -44 -18 -35 -3 4 7 3 8 -4 4 -7 -4 -12 -14 -12
-23 0 -9 -3 -14 -6 -11 -6 7 -61 -52 -85 -92 -9 -14 -19 -38 -23 -55 -7 -29
-7 -29 8 -10 8 11 16 25 16 31 0 6 10 19 22 30 21 19 21 19 14 -6 -3 -14 -9
-54 -11 -90 -5 -55 -4 -61 6 -40 14 29 46 96 63 127 19 38 24 26 24 -48 0 -39
5 -76 10 -81 6 -6 8 -18 5 -27 -4 -13 -2 -13 7 2 9 13 15 15 31 7 11 -6 17
-15 14 -21 -7 -10 64 -13 89 -3 9 3 16 12 16 20 0 8 5 14 10 14 6 0 10 7 10
16 0 8 4 13 9 9 5 -3 12 -1 16 4 3 6 12 8 20 5 12 -5 14 5 12 60 -1 41 -7 67
-14 70 -7 3 -13 10 -13 16 0 11 114 5 133 -7 4 -2 47 -11 95 -18 48 -8 102
-17 121 -21 40 -8 36 11 -6 27 -16 6 -23 15 -20 23 3 8 -1 20 -9 26 -8 7 -14
9 -14 6 0 -4 -9 -2 -19 4 -11 5 -37 12 -58 14 -21 2 -65 11 -98 20 -136 36
-269 45 -324 21z"/>
<path d="M1140 2771 c0 -6 4 -13 10 -16 6 -3 7 1 4 9 -7 18 -14 21 -14 7z"/>
<path d="M1885 2420 c-5 -8 -22 -10 -46 -7 -22 3 -37 1 -33 -4 3 -5 20 -9 37
-9 34 0 66 15 55 25 -3 4 -9 1 -13 -5z"/>
<path d="M2115 2391 c-26 -24 -145 -75 -228 -97 l-92 -24 88 4 c121 7 212 37
212 71 0 9 11 25 24 36 13 10 19 19 14 19 -5 0 -13 -4 -18 -9z"/>
<path d="M3080 2346 c0 -20 2 -36 4 -36 8 0 12 61 4 66 -4 3 -8 -11 -8 -30z"/>
<path d="M1150 2230 c0 -5 6 -10 14 -10 8 0 18 5 21 10 3 6 -3 10 -14 10 -12
0 -21 -4 -21 -10z"/>
<path d="M1085 2159 c-7 -10 21 -79 31 -79 3 0 4 12 2 28 -3 24 1 28 32 33
l35 6 -32 2 c-17 0 -35 6 -38 11 -8 13 -22 13 -30 -1z"/>
<path d="M1205 2005 c25 -22 28 -27 15 -36 -13 -9 -12 -10 3 -5 10 3 20 0 22
-7 23 -65 26 -70 37 -59 31 31 -38 133 -89 132 -15 -1 -12 -5 12 -25z"/>
<path d="M1625 1800 c-11 -4 -84 -23 -162 -41 -79 -18 -143 -36 -143 -41 0
-20 65 -142 94 -175 19 -23 46 -31 46 -15 0 5 57 19 127 31 129 23 143 27 143
39 0 12 -93 1 -115 -14 -22 -14 -110 -22 -121 -11 -4 4 17 7 47 8 46 0 50 2
29 10 -13 6 -43 7 -65 3 -22 -3 -37 -3 -33 1 4 5 36 11 70 16 l63 7 -65 -2
c-36 -1 -74 -6 -85 -11 -19 -9 -19 -8 -2 9 14 15 34 18 102 18 82 0 113 10 84
29 -16 10 -14 11 21 14 14 1 36 5 49 9 17 6 21 5 16 -3 -5 -8 1 -10 19 -5 20
5 26 2 26 -9 0 -9 -6 -17 -12 -20 -7 -2 -5 -3 5 -2 24 4 21 -11 -5 -29 -12 -9
-16 -16 -9 -16 8 0 11 -6 7 -17 -6 -15 -4 -15 14 2 42 38 21 103 -59 178 -53
50 -55 50 -86 37z m-67 -157 c-10 -2 -26 -2 -35 0 -10 3 -2 5 17 5 19 0 27 -2
18 -5z m-78 -73 c0 -5 -11 -9 -24 -8 -14 1 -22 6 -20 10 7 12 44 10 44 -2z"/>
<path d="M2715 1730 c-3 -5 -1 -10 4 -10 6 0 11 5 11 10 0 6 -2 10 -4 10 -3 0
-8 -4 -11 -10z"/>
<path d="M1728 1623 c6 -2 18 -2 25 0 6 3 1 5 -13 5 -14 0 -19 -2 -12 -5z"/>
<path d="M1480 1519 c0 -5 9 -9 20 -9 11 0 20 2 20 4 0 2 -9 6 -20 9 -11 3
-20 1 -20 -4z"/>
<path d="M2662 1500 c0 -14 2 -19 5 -12 2 6 2 18 0 25 -3 6 -5 1 -5 -13z"/>
<path d="M2701 1494 c0 -11 3 -14 6 -6 3 7 2 16 -1 19 -3 4 -6 -2 -5 -13z"/>
<path d="M1480 1432 c0 -18 31 -50 54 -56 34 -8 76 9 76 33 0 13 -9 20 -31 25
-44 8 -99 8 -99 -2z m94 -21 c20 -7 19 -8 0 -13 -11 -3 -29 1 -39 8 -18 14
-18 14 1 13 10 0 28 -4 38 -8z"/>
<path d="M2500 1400 c-9 -6 -10 -10 -3 -10 6 0 15 5 18 10 8 12 4 12 -15 0z"/>
<path d="M2605 1399 c-11 -17 1 -21 15 -4 8 9 8 15 2 15 -6 0 -14 -5 -17 -11z"/>
<path d="M2648 1323 c6 -2 18 -2 25 0 6 3 1 5 -13 5 -14 0 -19 -2 -12 -5z"/>
<path d="M2428 1313 c6 -2 18 -2 25 0 6 3 1 5 -13 5 -14 0 -19 -2 -12 -5z"/>
<path d="M2891 1297 c-52 -12 -96 -28 -99 -34 -5 -17 -6 -17 122 8 61 11 119
27 130 35 19 13 18 14 -19 13 -22 0 -82 -11 -134 -22z"/>
<path d="M2308 1293 c7 -3 16 -2 19 1 4 3 -2 6 -13 5 -11 0 -14 -3 -6 -6z"/>
<path d="M2678 1243 c6 -2 18 -2 25 0 6 3 1 5 -13 5 -14 0 -19 -2 -12 -5z"/>
<path d="M2580 1230 c-20 -6 -21 -8 -5 -8 11 0 34 4 50 8 27 7 27 8 5 8 -14 0
-36 -4 -50 -8z"/>
<path d="M2518 1213 c7 -3 16 -2 19 1 4 3 -2 6 -13 5 -11 0 -14 -3 -6 -6z"/>
<path d="M2350 1195 c-67 -12 -177 -36 -190 -41 -3 -1 -15 -5 -27 -9 -13 -4
-23 -11 -23 -16 0 -16 20 -19 62 -9 176 43 277 70 298 78 24 10 23 11 -10 10
-19 0 -69 -6 -110 -13z"/>
<path d="M1906 1081 c-14 -5 -16 -10 -7 -15 15 -10 78 1 86 14 7 12 -51 12
-79 1z"/>
<path d="M1470 2760 c0 -5 7 -7 15 -4 8 4 15 8 15 10 0 2 -7 4 -15 4 -8 0 -15
-4 -15 -10z"/>
<path d="M4050 2660 c0 -5 5 -10 10 -10 6 0 10 5 10 10 0 6 -4 10 -10 10 -5 0
-10 -4 -10 -10z"/>
<path d="M3711 2583 c-1 -12 4 -25 9 -28 12 -7 12 2 0 30 -8 19 -9 19 -9 -2z"/>
<path d="M3592 2417 c-10 -11 -1 -31 42 -95 39 -58 53 -87 49 -104 -3 -14 -2
-19 4 -11 13 18 36 -1 36 -30 0 -17 4 -24 13 -20 8 3 14 0 14 -6 0 -6 7 -11
15 -11 8 0 15 6 15 14 0 8 -7 21 -15 30 -8 8 -15 19 -15 24 0 5 -7 15 -15 22
-8 7 -15 21 -15 31 0 11 -5 18 -11 17 -6 -2 -28 28 -49 65 -46 84 -53 92 -68
74z"/>
<path d="M3844 2395 c12 -38 26 -46 26 -15 0 11 -4 20 -10 20 -5 0 -10 7 -10
15 0 8 -4 15 -9 15 -4 0 -3 -16 3 -35z"/>
<path d="M3647 2394 c3 -7 9 -14 14 -14 14 0 10 17 -5 23 -10 4 -13 1 -9 -9z"/>
<path d="M3810 2400 c0 -5 5 -10 10 -10 6 0 10 5 10 10 0 6 -4 10 -10 10 -5 0
-10 -4 -10 -10z"/>
<path d="M3600 2331 c0 -6 4 -13 10 -16 6 -3 7 1 4 9 -7 18 -14 21 -14 7z"/>
<path d="M3630 2251 c0 -5 7 -14 15 -21 13 -10 15 -9 15 9 0 12 -6 21 -15 21
-8 0 -15 -4 -15 -9z"/>
<path d="M3800 2189 c0 -5 5 -7 10 -4 6 3 10 8 10 11 0 2 -4 4 -10 4 -5 0 -10
-5 -10 -11z"/>
<path d="M3542 2120 c0 -14 2 -19 5 -12 2 6 2 18 0 25 -3 6 -5 1 -5 -13z"/>
<path d="M3560 1930 c0 -9 16 -50 44 -108 10 -22 11 -23 19 -5 8 18 -8 81 -19
71 -2 -3 0 -18 6 -33 6 -15 9 -30 7 -32 -2 -2 -14 24 -26 57 -21 56 -31 73
-31 50z"/>
<path d="M3590 1926 c0 -9 5 -16 10 -16 6 0 10 4 10 9 0 6 -4 13 -10 16 -5 3
-10 -1 -10 -9z"/>
<path d="M3222 1905 c0 -16 2 -22 5 -12 2 9 2 23 0 30 -3 6 -5 -1 -5 -18z"/>
<path d="M3322 1850 c0 -14 2 -19 5 -12 2 6 2 18 0 25 -3 6 -5 1 -5 -13z"/>
<path d="M3517 1820 c3 -11 7 -20 9 -20 2 0 4 9 4 20 0 11 -4 20 -9 20 -5 0
-7 -9 -4 -20z"/>
<path d="M3292 1580 c0 -14 2 -19 5 -12 2 6 2 18 0 25 -3 6 -5 1 -5 -13z"/>
<path d="M902 2300 c0 -14 2 -19 5 -12 2 6 2 18 0 25 -3 6 -5 1 -5 -13z"/>
<path d="M792 2380 c0 -14 2 -19 5 -12 2 6 2 18 0 25 -3 6 -5 1 -5 -13z"/>
<path d="M822 2345 c0 -16 2 -22 5 -12 2 9 2 23 0 30 -3 6 -5 -1 -5 -18z"/>
<path d="M2905 1760 c3 -5 8 -10 11 -10 2 0 4 5 4 10 0 6 -5 10 -11 10 -5 0
-7 -4 -4 -10z"/>
<path d="M2560 4290 c0 -5 5 -10 11 -10 5 0 7 5 4 10 -3 6 -8 10 -11 10 -2 0
-4 -4 -4 -10z"/>
<path d="M2660 4121 c0 -5 5 -13 10 -16 6 -3 10 -2 10 4 0 5 -4 13 -10 16 -5
3 -10 2 -10 -4z"/>
<path d="M1462 3950 c0 -14 2 -19 5 -12 2 6 2 18 0 25 -3 6 -5 1 -5 -13z"/>
<path d="M1090 3935 c-8 -9 -8 -15 -2 -15 12 0 26 19 19 26 -2 2 -10 -2 -17
-11z"/>
<path d="M2755 3919 c4 -12 18 -45 31 -73 17 -36 24 -44 24 -28 0 12 -11 45
-25 72 -26 52 -42 66 -30 29z"/>
<path d="M1438 3877 c-20 -48 -26 -183 -7 -172 6 4 9 19 7 35 -1 15 4 35 11
44 8 9 9 16 3 16 -6 0 -13 -6 -16 -12 -3 -7 -4 1 -3 17 1 22 7 30 20 29 18 -2
21 20 9 63 -6 21 -9 18 -24 -20z"/>
<path d="M984 3804 c-49 -58 -58 -83 -10 -29 35 38 61 75 53 75 -2 0 -21 -21
-43 -46z"/>
<path d="M2207 3804 c-4 -4 -7 -17 -7 -28 1 -19 1 -20 11 -3 11 19 8 43 -4 31z"/>
<path d="M2826 3767 c3 -10 9 -15 12 -12 3 3 0 11 -7 18 -10 9 -11 8 -5 -6z"/>
<path d="M2850 3715 c0 -5 5 -17 10 -25 5 -8 10 -10 10 -5 0 6 -5 17 -10 25
-5 8 -10 11 -10 5z"/>
<path d="M931 3608 c-20 -62 -25 -136 -10 -154 6 -8 9 -17 5 -21 -3 -3 -6 -1
-6 6 0 7 -5 9 -11 5 -7 -4 -9 -36 -6 -93 3 -47 6 -86 7 -86 1 0 3 -16 4 -35 2
-19 7 -66 11 -105 13 -106 25 -40 15 77 -4 51 -6 96 -4 100 9 14 11 189 3 194
-5 3 -8 24 -7 47 l1 42 4 -40 c3 -22 9 -45 14 -52 6 -6 15 -24 20 -40 10 -31
6 3 -15 130 l-11 68 -14 -43z"/>
<path d="M3092 3550 c0 -19 2 -27 5 -17 2 9 2 25 0 35 -3 9 -5 1 -5 -18z"/>
<path d="M3103 3445 c0 -33 2 -45 4 -27 2 18 2 45 0 60 -2 15 -4 0 -4 -33z"/>
<path d="M3366 3462 c3 -13 17 -47 30 -75 13 -29 21 -41 18 -27 -4 14 -17 48
-30 75 -13 28 -21 39 -18 27z"/>
<path d="M982 3395 c0 -11 4 -31 8 -45 6 -20 8 -21 8 -5 0 11 -4 31 -8 45 -6
20 -8 21 -8 5z"/>
<path d="M1606 3228 c4 -95 8 -180 10 -188 1 -8 3 -26 4 -40 1 -23 1 -24 12
-6 7 13 8 69 4 178 -7 168 -13 215 -28 224 -6 4 -7 -61 -2 -168z"/>
<path d="M833 3330 c0 -30 2 -43 4 -27 2 15 2 39 0 55 -2 15 -4 2 -4 -28z"/>
<path d="M3113 3305 c0 -38 2 -53 4 -32 2 20 2 52 0 70 -2 17 -4 1 -4 -38z"/>
<path d="M2583 3305 c0 -33 2 -45 4 -27 2 18 2 45 0 60 -2 15 -4 0 -4 -33z"/>
<path d="M2976 3209 c-4 -23 -5 -44 -2 -46 2 -2 7 14 11 37 4 23 5 43 2 46 -2
3 -7 -14 -11 -37z"/>
<path d="M1022 3220 c0 -14 2 -19 5 -12 2 6 2 18 0 25 -3 6 -5 1 -5 -13z"/>
<path d="M2576 3165 c-17 -201 -37 -404 -42 -445 -5 -32 -3 -42 5 -35 22 22
68 470 53 525 -8 32 -10 29 -16 -45z"/>
<path d="M1212 3160 c0 -14 2 -19 5 -12 2 6 2 18 0 25 -3 6 -5 1 -5 -13z"/>
<path d="M3123 3140 c0 -25 2 -35 4 -22 2 12 2 32 0 45 -2 12 -4 2 -4 -23z"/>
<path d="M2687 3138 c-3 -13 -8 -59 -12 -103 -4 -44 -13 -129 -20 -190 -25
-202 -26 -215 -16 -215 14 0 28 55 35 135 3 39 11 124 16 190 5 66 12 139 16
163 5 44 -10 60 -19 20z"/>
<path d="M2846 3138 c-3 -13 -10 -50 -16 -83 -17 -94 -32 -158 -41 -180 -4
-11 -15 -51 -23 -90 -8 -38 -19 -87 -24 -108 -6 -23 -6 -39 0 -43 5 -3 10 -4
11 -3 11 19 37 112 37 130 0 12 5 38 10 56 6 18 15 48 20 67 9 28 50 254 50
272 0 2 -4 4 -10 4 -5 0 -12 -10 -14 -22z"/>
<path d="M1050 3109 c0 -15 7 -29 15 -33 19 -7 19 14 0 40 -14 18 -14 18 -15
-7z"/>
<path d="M1223 3095 c0 -22 2 -30 4 -17 2 12 2 30 0 40 -3 9 -5 -1 -4 -23z"/>
<path d="M2952 3105 c0 -16 2 -22 5 -12 2 9 2 23 0 30 -3 6 -5 -1 -5 -18z"/>
<path d="M1871 3064 c0 -11 3 -14 6 -6 3 7 2 16 -1 19 -3 4 -6 -2 -5 -13z"/>
<path d="M3133 3020 c0 -30 2 -43 4 -27 2 15 2 39 0 55 -2 15 -4 2 -4 -28z"/>
<path d="M1084 3045 c4 -11 10 -32 13 -48 3 -15 9 -30 14 -33 10 -6 -16 85
-27 94 -4 4 -4 -2 0 -13z"/>
<path d="M2930 3042 c0 -11 -3 -41 -6 -68 -3 -32 -2 -44 4 -34 13 21 21 109
11 116 -5 3 -9 -3 -9 -14z"/>
<path d="M3033 3025 c0 -22 2 -30 4 -17 2 12 2 30 0 40 -3 9 -5 -1 -4 -23z"/>
<path d="M1232 3020 c0 -14 2 -19 5 -12 2 6 2 18 0 25 -3 6 -5 1 -5 -13z"/>
<path d="M3262 3010 c0 -19 2 -27 5 -17 2 9 2 25 0 35 -3 9 -5 1 -5 -18z"/>
<path d="M1037 3003 c-14 -21 -20 -130 -8 -137 6 -4 14 -1 17 7 8 21 0 144 -9
130z"/>
<path d="M2611 2974 c0 -11 3 -14 6 -6 3 7 2 16 -1 19 -3 4 -6 -2 -5 -13z"/>
<path d="M1242 2893 c7 -72 12 -102 35 -218 5 -22 14 -40 21 -40 6 0 12 2 13
5 2 10 -13 86 -21 110 -5 14 -11 48 -14 75 -5 61 -26 145 -35 145 -4 0 -3 -35
1 -77z"/>
<path d="M3272 2940 c0 -19 2 -27 5 -17 2 9 2 25 0 35 -3 9 -5 1 -5 -18z"/>
<path d="M3022 2940 c0 -14 2 -19 5 -12 2 6 2 18 0 25 -3 6 -5 1 -5 -13z"/>
<path d="M3141 2885 c-7 -192 0 -340 16 -355 14 -13 14 1 8 140 -4 85 -10 187
-14 225 l-8 70 -2 -80z"/>
<path d="M3391 2904 c0 -11 3 -14 6 -6 3 7 2 16 -1 19 -3 4 -6 -2 -5 -13z"/>
<path d="M570 2854 c0 -8 5 -12 10 -9 6 4 8 11 5 16 -9 14 -15 11 -15 -7z"/>
<path d="M550 2830 c6 -11 13 -20 16 -20 2 0 0 9 -6 20 -6 11 -13 20 -16 20
-2 0 0 -9 6 -20z"/>
<path d="M860 2780 c-7 -13 -9 -39 -6 -64 19 -124 23 -191 12 -198 -6 -4 -1
-6 11 -5 12 0 23 8 25 17 5 18 -19 260 -26 267 -2 3 -10 -5 -16 -17z"/>
<path d="M520 2760 c0 -5 5 -10 11 -10 5 0 7 5 4 10 -3 6 -8 10 -11 10 -2 0
-4 -4 -4 -10z"/>
<path d="M3384 2755 c-3 -8 -4 -20 -2 -27 3 -7 7 -1 10 15 6 29 1 36 -8 12z"/>
<path d="M3472 2695 c0 -16 2 -22 5 -12 2 9 2 23 0 30 -3 6 -5 -1 -5 -18z"/>
<path d="M1421 2674 c0 -11 3 -14 6 -6 3 7 2 16 -1 19 -3 4 -6 -2 -5 -13z"/>
<path d="M750 2566 c0 -9 5 -16 10 -16 6 0 10 4 10 9 0 6 -4 13 -10 16 -5 3
-10 -1 -10 -9z"/>
<path d="M652 2540 c0 -14 2 -19 5 -12 2 6 2 18 0 25 -3 6 -5 1 -5 -13z"/>
<path d="M3560 660 c-13 -8 -13 -10 2 -10 9 0 20 5 23 10 8 13 -5 13 -25 0z"/>
<path d="M3446 631 c-4 -5 -2 -12 3 -15 5 -4 12 -2 15 3 4 5 2 12 -3 15 -5 4
-12 2 -15 -3z"/>
<path d="M2940 590 c0 -5 5 -10 10 -10 6 0 10 5 10 10 0 6 -4 10 -10 10 -5 0
-10 -4 -10 -10z"/>
<path d="M3000 504 c0 -5 7 -18 15 -28 8 -11 15 -16 15 -10 0 5 -7 18 -15 28
-8 11 -15 16 -15 10z"/>
<path d="M2840 399 c-7 -11 -10 -23 -7 -25 2 -2 9 7 15 21 14 30 7 33 -8 4z"/>
<path d="M1150 369 c0 -5 5 -7 10 -4 6 3 10 8 10 11 0 2 -4 4 -10 4 -5 0 -10
-5 -10 -11z"/>
<path d="M4065 350 c3 -5 8 -10 11 -10 2 0 4 5 4 10 0 6 -5 10 -11 10 -5 0 -7
-4 -4 -10z"/>
<path d="M3161 224 c0 -11 3 -14 6 -6 3 7 2 16 -1 19 -3 4 -6 -2 -5 -13z"/>
<path d="M4112 200 c0 -14 2 -19 5 -12 2 6 2 18 0 25 -3 6 -5 1 -5 -13z"/>
<path d="M3248 161 c-16 -22 -28 -44 -28 -50 0 -6 -4 -11 -8 -11 -5 0 -14 -17
-21 -37 -7 -21 -15 -44 -17 -50 -4 -10 20 -13 104 -13 l110 0 10 68 c5 37 7
73 3 80 -9 17 -81 52 -106 52 -12 0 -31 -16 -47 -39z"/>
<path d="M4122 135 c0 -16 2 -22 5 -12 2 9 2 23 0 30 -3 6 -5 -1 -5 -18z"/>
<path d="M2697 133 c-4 -3 -7 -11 -7 -17 0 -6 5 -5 12 2 6 6 9 14 7 17 -3 3
-9 2 -12 -2z"/>
<path d="M3866 123 c-6 -14 -5 -15 5 -6 7 7 10 15 7 18 -3 3 -9 -2 -12 -12z"/>
<path d="M2858 123 c7 -3 16 -2 19 1 4 3 -2 6 -13 5 -11 0 -14 -3 -6 -6z"/>
</g>
</svg>
